G04 #@! TF.GenerationSoftware,KiCad,Pcbnew,5.0.1-33cea8e~68~ubuntu16.04.1*
G04 #@! TF.CreationDate,2019-01-28T11:16:33-05:00*
G04 #@! TF.ProjectId,nametag_final,6E616D657461675F66696E616C2E6B69,rev?*
G04 #@! TF.SameCoordinates,Original*
G04 #@! TF.FileFunction,Copper,L1,Top,Signal*
G04 #@! TF.FilePolarity,Positive*
%FSLAX46Y46*%
G04 Gerber Fmt 4.6, Leading zero omitted, Abs format (unit mm)*
G04 Created by KiCad (PCBNEW 5.0.1-33cea8e~68~ubuntu16.04.1) date Mon 28 Jan 2019 11:16:33 AM EST*
%MOMM*%
%LPD*%
G01*
G04 APERTURE LIST*
G04 #@! TA.AperFunction,NonConductor*
%ADD10C,0.400000*%
G04 #@! TD*
G04 #@! TA.AperFunction,SMDPad,CuDef*
%ADD11R,2.500000X5.100000*%
G04 #@! TD*
G04 #@! TA.AperFunction,BGAPad,CuDef*
%ADD12C,17.800000*%
G04 #@! TD*
G04 #@! TA.AperFunction,Conductor*
%ADD13C,0.100000*%
G04 #@! TD*
G04 #@! TA.AperFunction,SMDPad,CuDef*
%ADD14C,0.975000*%
G04 #@! TD*
G04 #@! TA.AperFunction,SMDPad,CuDef*
%ADD15R,0.800000X0.900000*%
G04 #@! TD*
G04 #@! TA.AperFunction,SMDPad,CuDef*
%ADD16R,1.200000X2.500000*%
G04 #@! TD*
G04 #@! TA.AperFunction,Conductor*
%ADD17C,0.250000*%
G04 #@! TD*
G04 APERTURE END LIST*
D10*
X105673333Y-74861800D02*
X106673333Y-75195133D01*
X107006666Y-75528466D01*
X107340000Y-76195133D01*
X107340000Y-77195133D01*
X107006666Y-77861800D01*
X106673333Y-78195133D01*
X106006666Y-78528466D01*
X103340000Y-78528466D01*
X103340000Y-71528466D01*
X105673333Y-71528466D01*
X106340000Y-71861800D01*
X106673333Y-72195133D01*
X107006666Y-72861800D01*
X107006666Y-73528466D01*
X106673333Y-74195133D01*
X106340000Y-74528466D01*
X105673333Y-74861800D01*
X103340000Y-74861800D01*
X110340000Y-78528466D02*
X110340000Y-73861800D01*
X110340000Y-75195133D02*
X110673333Y-74528466D01*
X111006666Y-74195133D01*
X111673333Y-73861800D01*
X112340000Y-73861800D01*
X117673333Y-73861800D02*
X117673333Y-78528466D01*
X114673333Y-73861800D02*
X114673333Y-77528466D01*
X115006666Y-78195133D01*
X115673333Y-78528466D01*
X116673333Y-78528466D01*
X117340000Y-78195133D01*
X117673333Y-77861800D01*
X121006666Y-73861800D02*
X121006666Y-78528466D01*
X121006666Y-74528466D02*
X121340000Y-74195133D01*
X122006666Y-73861800D01*
X123006666Y-73861800D01*
X123673333Y-74195133D01*
X124006666Y-74861800D01*
X124006666Y-78528466D01*
X128340000Y-78528466D02*
X127673333Y-78195133D01*
X127340000Y-77861800D01*
X127006666Y-77195133D01*
X127006666Y-75195133D01*
X127340000Y-74528466D01*
X127673333Y-74195133D01*
X128340000Y-73861800D01*
X129340000Y-73861800D01*
X130006666Y-74195133D01*
X130340000Y-74528466D01*
X130673333Y-75195133D01*
X130673333Y-77195133D01*
X130340000Y-77861800D01*
X130006666Y-78195133D01*
X129340000Y-78528466D01*
X128340000Y-78528466D01*
D11*
G04 #@! TO.P,BT1,1*
G04 #@! TO.N,VDD*
X83957800Y-97637600D03*
X106857800Y-97637600D03*
D12*
G04 #@! TO.P,BT1,2*
G04 #@! TO.N,GND*
X95407800Y-97637600D03*
G04 #@! TD*
D13*
G04 #@! TO.N,Net-(D1-Pad2)*
G04 #@! TO.C,D2*
G36*
X139284142Y-76438674D02*
X139307803Y-76442184D01*
X139331007Y-76447996D01*
X139353529Y-76456054D01*
X139375153Y-76466282D01*
X139395670Y-76478579D01*
X139414883Y-76492829D01*
X139432607Y-76508893D01*
X139448671Y-76526617D01*
X139462921Y-76545830D01*
X139475218Y-76566347D01*
X139485446Y-76587971D01*
X139493504Y-76610493D01*
X139499316Y-76633697D01*
X139502826Y-76657358D01*
X139504000Y-76681250D01*
X139504000Y-77593750D01*
X139502826Y-77617642D01*
X139499316Y-77641303D01*
X139493504Y-77664507D01*
X139485446Y-77687029D01*
X139475218Y-77708653D01*
X139462921Y-77729170D01*
X139448671Y-77748383D01*
X139432607Y-77766107D01*
X139414883Y-77782171D01*
X139395670Y-77796421D01*
X139375153Y-77808718D01*
X139353529Y-77818946D01*
X139331007Y-77827004D01*
X139307803Y-77832816D01*
X139284142Y-77836326D01*
X139260250Y-77837500D01*
X138772750Y-77837500D01*
X138748858Y-77836326D01*
X138725197Y-77832816D01*
X138701993Y-77827004D01*
X138679471Y-77818946D01*
X138657847Y-77808718D01*
X138637330Y-77796421D01*
X138618117Y-77782171D01*
X138600393Y-77766107D01*
X138584329Y-77748383D01*
X138570079Y-77729170D01*
X138557782Y-77708653D01*
X138547554Y-77687029D01*
X138539496Y-77664507D01*
X138533684Y-77641303D01*
X138530174Y-77617642D01*
X138529000Y-77593750D01*
X138529000Y-76681250D01*
X138530174Y-76657358D01*
X138533684Y-76633697D01*
X138539496Y-76610493D01*
X138547554Y-76587971D01*
X138557782Y-76566347D01*
X138570079Y-76545830D01*
X138584329Y-76526617D01*
X138600393Y-76508893D01*
X138618117Y-76492829D01*
X138637330Y-76478579D01*
X138657847Y-76466282D01*
X138679471Y-76456054D01*
X138701993Y-76447996D01*
X138725197Y-76442184D01*
X138748858Y-76438674D01*
X138772750Y-76437500D01*
X139260250Y-76437500D01*
X139284142Y-76438674D01*
X139284142Y-76438674D01*
G37*
D14*
G04 #@! TD*
G04 #@! TO.P,D2,2*
G04 #@! TO.N,Net-(D1-Pad2)*
X139016500Y-77137500D03*
D13*
G04 #@! TO.N,Net-(D1-Pad1)*
G04 #@! TO.C,D2*
G36*
X141159142Y-76438674D02*
X141182803Y-76442184D01*
X141206007Y-76447996D01*
X141228529Y-76456054D01*
X141250153Y-76466282D01*
X141270670Y-76478579D01*
X141289883Y-76492829D01*
X141307607Y-76508893D01*
X141323671Y-76526617D01*
X141337921Y-76545830D01*
X141350218Y-76566347D01*
X141360446Y-76587971D01*
X141368504Y-76610493D01*
X141374316Y-76633697D01*
X141377826Y-76657358D01*
X141379000Y-76681250D01*
X141379000Y-77593750D01*
X141377826Y-77617642D01*
X141374316Y-77641303D01*
X141368504Y-77664507D01*
X141360446Y-77687029D01*
X141350218Y-77708653D01*
X141337921Y-77729170D01*
X141323671Y-77748383D01*
X141307607Y-77766107D01*
X141289883Y-77782171D01*
X141270670Y-77796421D01*
X141250153Y-77808718D01*
X141228529Y-77818946D01*
X141206007Y-77827004D01*
X141182803Y-77832816D01*
X141159142Y-77836326D01*
X141135250Y-77837500D01*
X140647750Y-77837500D01*
X140623858Y-77836326D01*
X140600197Y-77832816D01*
X140576993Y-77827004D01*
X140554471Y-77818946D01*
X140532847Y-77808718D01*
X140512330Y-77796421D01*
X140493117Y-77782171D01*
X140475393Y-77766107D01*
X140459329Y-77748383D01*
X140445079Y-77729170D01*
X140432782Y-77708653D01*
X140422554Y-77687029D01*
X140414496Y-77664507D01*
X140408684Y-77641303D01*
X140405174Y-77617642D01*
X140404000Y-77593750D01*
X140404000Y-76681250D01*
X140405174Y-76657358D01*
X140408684Y-76633697D01*
X140414496Y-76610493D01*
X140422554Y-76587971D01*
X140432782Y-76566347D01*
X140445079Y-76545830D01*
X140459329Y-76526617D01*
X140475393Y-76508893D01*
X140493117Y-76492829D01*
X140512330Y-76478579D01*
X140532847Y-76466282D01*
X140554471Y-76456054D01*
X140576993Y-76447996D01*
X140600197Y-76442184D01*
X140623858Y-76438674D01*
X140647750Y-76437500D01*
X141135250Y-76437500D01*
X141159142Y-76438674D01*
X141159142Y-76438674D01*
G37*
D14*
G04 #@! TD*
G04 #@! TO.P,D2,1*
G04 #@! TO.N,Net-(D1-Pad1)*
X140891500Y-77137500D03*
D15*
G04 #@! TO.P,Q1,1*
G04 #@! TO.N,Net-(Q1-Pad1)*
X115758000Y-96282000D03*
G04 #@! TO.P,Q1,2*
G04 #@! TO.N,VDD*
X113858000Y-96282000D03*
G04 #@! TO.P,Q1,3*
G04 #@! TO.N,Net-(Q1-Pad3)*
X114808000Y-98282000D03*
G04 #@! TD*
G04 #@! TO.P,Q2,3*
G04 #@! TO.N,Net-(C1-Pad1)*
X115890000Y-109188000D03*
G04 #@! TO.P,Q2,2*
G04 #@! TO.N,GND*
X114940000Y-107188000D03*
G04 #@! TO.P,Q2,1*
G04 #@! TO.N,Net-(Q2-Pad1)*
X116840000Y-107188000D03*
G04 #@! TD*
D16*
G04 #@! TO.P,SW1,6*
G04 #@! TO.N,N/C*
X125008000Y-106846000D03*
G04 #@! TO.P,SW1,5*
X127508000Y-106846000D03*
G04 #@! TO.P,SW1,4*
X130008000Y-106846000D03*
G04 #@! TO.P,SW1,3*
G04 #@! TO.N,Net-(SW1-Pad3)*
X125008000Y-101346000D03*
G04 #@! TO.P,SW1,2*
G04 #@! TO.N,Net-(C1-Pad1)*
X127508000Y-101346000D03*
G04 #@! TO.P,SW1,1*
G04 #@! TO.N,Net-(D1-Pad1)*
X130008000Y-101346000D03*
G04 #@! TD*
D13*
G04 #@! TO.N,Net-(D1-Pad2)*
G04 #@! TO.C,D1*
G36*
X94931142Y-76263174D02*
X94954803Y-76266684D01*
X94978007Y-76272496D01*
X95000529Y-76280554D01*
X95022153Y-76290782D01*
X95042670Y-76303079D01*
X95061883Y-76317329D01*
X95079607Y-76333393D01*
X95095671Y-76351117D01*
X95109921Y-76370330D01*
X95122218Y-76390847D01*
X95132446Y-76412471D01*
X95140504Y-76434993D01*
X95146316Y-76458197D01*
X95149826Y-76481858D01*
X95151000Y-76505750D01*
X95151000Y-77418250D01*
X95149826Y-77442142D01*
X95146316Y-77465803D01*
X95140504Y-77489007D01*
X95132446Y-77511529D01*
X95122218Y-77533153D01*
X95109921Y-77553670D01*
X95095671Y-77572883D01*
X95079607Y-77590607D01*
X95061883Y-77606671D01*
X95042670Y-77620921D01*
X95022153Y-77633218D01*
X95000529Y-77643446D01*
X94978007Y-77651504D01*
X94954803Y-77657316D01*
X94931142Y-77660826D01*
X94907250Y-77662000D01*
X94419750Y-77662000D01*
X94395858Y-77660826D01*
X94372197Y-77657316D01*
X94348993Y-77651504D01*
X94326471Y-77643446D01*
X94304847Y-77633218D01*
X94284330Y-77620921D01*
X94265117Y-77606671D01*
X94247393Y-77590607D01*
X94231329Y-77572883D01*
X94217079Y-77553670D01*
X94204782Y-77533153D01*
X94194554Y-77511529D01*
X94186496Y-77489007D01*
X94180684Y-77465803D01*
X94177174Y-77442142D01*
X94176000Y-77418250D01*
X94176000Y-76505750D01*
X94177174Y-76481858D01*
X94180684Y-76458197D01*
X94186496Y-76434993D01*
X94194554Y-76412471D01*
X94204782Y-76390847D01*
X94217079Y-76370330D01*
X94231329Y-76351117D01*
X94247393Y-76333393D01*
X94265117Y-76317329D01*
X94284330Y-76303079D01*
X94304847Y-76290782D01*
X94326471Y-76280554D01*
X94348993Y-76272496D01*
X94372197Y-76266684D01*
X94395858Y-76263174D01*
X94419750Y-76262000D01*
X94907250Y-76262000D01*
X94931142Y-76263174D01*
X94931142Y-76263174D01*
G37*
D14*
G04 #@! TD*
G04 #@! TO.P,D1,2*
G04 #@! TO.N,Net-(D1-Pad2)*
X94663500Y-76962000D03*
D13*
G04 #@! TO.N,Net-(D1-Pad1)*
G04 #@! TO.C,D1*
G36*
X93056142Y-76263174D02*
X93079803Y-76266684D01*
X93103007Y-76272496D01*
X93125529Y-76280554D01*
X93147153Y-76290782D01*
X93167670Y-76303079D01*
X93186883Y-76317329D01*
X93204607Y-76333393D01*
X93220671Y-76351117D01*
X93234921Y-76370330D01*
X93247218Y-76390847D01*
X93257446Y-76412471D01*
X93265504Y-76434993D01*
X93271316Y-76458197D01*
X93274826Y-76481858D01*
X93276000Y-76505750D01*
X93276000Y-77418250D01*
X93274826Y-77442142D01*
X93271316Y-77465803D01*
X93265504Y-77489007D01*
X93257446Y-77511529D01*
X93247218Y-77533153D01*
X93234921Y-77553670D01*
X93220671Y-77572883D01*
X93204607Y-77590607D01*
X93186883Y-77606671D01*
X93167670Y-77620921D01*
X93147153Y-77633218D01*
X93125529Y-77643446D01*
X93103007Y-77651504D01*
X93079803Y-77657316D01*
X93056142Y-77660826D01*
X93032250Y-77662000D01*
X92544750Y-77662000D01*
X92520858Y-77660826D01*
X92497197Y-77657316D01*
X92473993Y-77651504D01*
X92451471Y-77643446D01*
X92429847Y-77633218D01*
X92409330Y-77620921D01*
X92390117Y-77606671D01*
X92372393Y-77590607D01*
X92356329Y-77572883D01*
X92342079Y-77553670D01*
X92329782Y-77533153D01*
X92319554Y-77511529D01*
X92311496Y-77489007D01*
X92305684Y-77465803D01*
X92302174Y-77442142D01*
X92301000Y-77418250D01*
X92301000Y-76505750D01*
X92302174Y-76481858D01*
X92305684Y-76458197D01*
X92311496Y-76434993D01*
X92319554Y-76412471D01*
X92329782Y-76390847D01*
X92342079Y-76370330D01*
X92356329Y-76351117D01*
X92372393Y-76333393D01*
X92390117Y-76317329D01*
X92409330Y-76303079D01*
X92429847Y-76290782D01*
X92451471Y-76280554D01*
X92473993Y-76272496D01*
X92497197Y-76266684D01*
X92520858Y-76263174D01*
X92544750Y-76262000D01*
X93032250Y-76262000D01*
X93056142Y-76263174D01*
X93056142Y-76263174D01*
G37*
D14*
G04 #@! TD*
G04 #@! TO.P,D1,1*
G04 #@! TO.N,Net-(D1-Pad1)*
X92788500Y-76962000D03*
D13*
G04 #@! TO.N,Net-(D1-Pad2)*
G04 #@! TO.C,D3*
G36*
X94933442Y-70624374D02*
X94957103Y-70627884D01*
X94980307Y-70633696D01*
X95002829Y-70641754D01*
X95024453Y-70651982D01*
X95044970Y-70664279D01*
X95064183Y-70678529D01*
X95081907Y-70694593D01*
X95097971Y-70712317D01*
X95112221Y-70731530D01*
X95124518Y-70752047D01*
X95134746Y-70773671D01*
X95142804Y-70796193D01*
X95148616Y-70819397D01*
X95152126Y-70843058D01*
X95153300Y-70866950D01*
X95153300Y-71779450D01*
X95152126Y-71803342D01*
X95148616Y-71827003D01*
X95142804Y-71850207D01*
X95134746Y-71872729D01*
X95124518Y-71894353D01*
X95112221Y-71914870D01*
X95097971Y-71934083D01*
X95081907Y-71951807D01*
X95064183Y-71967871D01*
X95044970Y-71982121D01*
X95024453Y-71994418D01*
X95002829Y-72004646D01*
X94980307Y-72012704D01*
X94957103Y-72018516D01*
X94933442Y-72022026D01*
X94909550Y-72023200D01*
X94422050Y-72023200D01*
X94398158Y-72022026D01*
X94374497Y-72018516D01*
X94351293Y-72012704D01*
X94328771Y-72004646D01*
X94307147Y-71994418D01*
X94286630Y-71982121D01*
X94267417Y-71967871D01*
X94249693Y-71951807D01*
X94233629Y-71934083D01*
X94219379Y-71914870D01*
X94207082Y-71894353D01*
X94196854Y-71872729D01*
X94188796Y-71850207D01*
X94182984Y-71827003D01*
X94179474Y-71803342D01*
X94178300Y-71779450D01*
X94178300Y-70866950D01*
X94179474Y-70843058D01*
X94182984Y-70819397D01*
X94188796Y-70796193D01*
X94196854Y-70773671D01*
X94207082Y-70752047D01*
X94219379Y-70731530D01*
X94233629Y-70712317D01*
X94249693Y-70694593D01*
X94267417Y-70678529D01*
X94286630Y-70664279D01*
X94307147Y-70651982D01*
X94328771Y-70641754D01*
X94351293Y-70633696D01*
X94374497Y-70627884D01*
X94398158Y-70624374D01*
X94422050Y-70623200D01*
X94909550Y-70623200D01*
X94933442Y-70624374D01*
X94933442Y-70624374D01*
G37*
D14*
G04 #@! TD*
G04 #@! TO.P,D3,2*
G04 #@! TO.N,Net-(D1-Pad2)*
X94665800Y-71323200D03*
D13*
G04 #@! TO.N,Net-(D1-Pad1)*
G04 #@! TO.C,D3*
G36*
X93058442Y-70624374D02*
X93082103Y-70627884D01*
X93105307Y-70633696D01*
X93127829Y-70641754D01*
X93149453Y-70651982D01*
X93169970Y-70664279D01*
X93189183Y-70678529D01*
X93206907Y-70694593D01*
X93222971Y-70712317D01*
X93237221Y-70731530D01*
X93249518Y-70752047D01*
X93259746Y-70773671D01*
X93267804Y-70796193D01*
X93273616Y-70819397D01*
X93277126Y-70843058D01*
X93278300Y-70866950D01*
X93278300Y-71779450D01*
X93277126Y-71803342D01*
X93273616Y-71827003D01*
X93267804Y-71850207D01*
X93259746Y-71872729D01*
X93249518Y-71894353D01*
X93237221Y-71914870D01*
X93222971Y-71934083D01*
X93206907Y-71951807D01*
X93189183Y-71967871D01*
X93169970Y-71982121D01*
X93149453Y-71994418D01*
X93127829Y-72004646D01*
X93105307Y-72012704D01*
X93082103Y-72018516D01*
X93058442Y-72022026D01*
X93034550Y-72023200D01*
X92547050Y-72023200D01*
X92523158Y-72022026D01*
X92499497Y-72018516D01*
X92476293Y-72012704D01*
X92453771Y-72004646D01*
X92432147Y-71994418D01*
X92411630Y-71982121D01*
X92392417Y-71967871D01*
X92374693Y-71951807D01*
X92358629Y-71934083D01*
X92344379Y-71914870D01*
X92332082Y-71894353D01*
X92321854Y-71872729D01*
X92313796Y-71850207D01*
X92307984Y-71827003D01*
X92304474Y-71803342D01*
X92303300Y-71779450D01*
X92303300Y-70866950D01*
X92304474Y-70843058D01*
X92307984Y-70819397D01*
X92313796Y-70796193D01*
X92321854Y-70773671D01*
X92332082Y-70752047D01*
X92344379Y-70731530D01*
X92358629Y-70712317D01*
X92374693Y-70694593D01*
X92392417Y-70678529D01*
X92411630Y-70664279D01*
X92432147Y-70651982D01*
X92453771Y-70641754D01*
X92476293Y-70633696D01*
X92499497Y-70627884D01*
X92523158Y-70624374D01*
X92547050Y-70623200D01*
X93034550Y-70623200D01*
X93058442Y-70624374D01*
X93058442Y-70624374D01*
G37*
D14*
G04 #@! TD*
G04 #@! TO.P,D3,1*
G04 #@! TO.N,Net-(D1-Pad1)*
X92790800Y-71323200D03*
D13*
G04 #@! TO.N,Net-(D1-Pad1)*
G04 #@! TO.C,D4*
G36*
X141161442Y-70624374D02*
X141185103Y-70627884D01*
X141208307Y-70633696D01*
X141230829Y-70641754D01*
X141252453Y-70651982D01*
X141272970Y-70664279D01*
X141292183Y-70678529D01*
X141309907Y-70694593D01*
X141325971Y-70712317D01*
X141340221Y-70731530D01*
X141352518Y-70752047D01*
X141362746Y-70773671D01*
X141370804Y-70796193D01*
X141376616Y-70819397D01*
X141380126Y-70843058D01*
X141381300Y-70866950D01*
X141381300Y-71779450D01*
X141380126Y-71803342D01*
X141376616Y-71827003D01*
X141370804Y-71850207D01*
X141362746Y-71872729D01*
X141352518Y-71894353D01*
X141340221Y-71914870D01*
X141325971Y-71934083D01*
X141309907Y-71951807D01*
X141292183Y-71967871D01*
X141272970Y-71982121D01*
X141252453Y-71994418D01*
X141230829Y-72004646D01*
X141208307Y-72012704D01*
X141185103Y-72018516D01*
X141161442Y-72022026D01*
X141137550Y-72023200D01*
X140650050Y-72023200D01*
X140626158Y-72022026D01*
X140602497Y-72018516D01*
X140579293Y-72012704D01*
X140556771Y-72004646D01*
X140535147Y-71994418D01*
X140514630Y-71982121D01*
X140495417Y-71967871D01*
X140477693Y-71951807D01*
X140461629Y-71934083D01*
X140447379Y-71914870D01*
X140435082Y-71894353D01*
X140424854Y-71872729D01*
X140416796Y-71850207D01*
X140410984Y-71827003D01*
X140407474Y-71803342D01*
X140406300Y-71779450D01*
X140406300Y-70866950D01*
X140407474Y-70843058D01*
X140410984Y-70819397D01*
X140416796Y-70796193D01*
X140424854Y-70773671D01*
X140435082Y-70752047D01*
X140447379Y-70731530D01*
X140461629Y-70712317D01*
X140477693Y-70694593D01*
X140495417Y-70678529D01*
X140514630Y-70664279D01*
X140535147Y-70651982D01*
X140556771Y-70641754D01*
X140579293Y-70633696D01*
X140602497Y-70627884D01*
X140626158Y-70624374D01*
X140650050Y-70623200D01*
X141137550Y-70623200D01*
X141161442Y-70624374D01*
X141161442Y-70624374D01*
G37*
D14*
G04 #@! TD*
G04 #@! TO.P,D4,1*
G04 #@! TO.N,Net-(D1-Pad1)*
X140893800Y-71323200D03*
D13*
G04 #@! TO.N,Net-(D1-Pad2)*
G04 #@! TO.C,D4*
G36*
X139286442Y-70624374D02*
X139310103Y-70627884D01*
X139333307Y-70633696D01*
X139355829Y-70641754D01*
X139377453Y-70651982D01*
X139397970Y-70664279D01*
X139417183Y-70678529D01*
X139434907Y-70694593D01*
X139450971Y-70712317D01*
X139465221Y-70731530D01*
X139477518Y-70752047D01*
X139487746Y-70773671D01*
X139495804Y-70796193D01*
X139501616Y-70819397D01*
X139505126Y-70843058D01*
X139506300Y-70866950D01*
X139506300Y-71779450D01*
X139505126Y-71803342D01*
X139501616Y-71827003D01*
X139495804Y-71850207D01*
X139487746Y-71872729D01*
X139477518Y-71894353D01*
X139465221Y-71914870D01*
X139450971Y-71934083D01*
X139434907Y-71951807D01*
X139417183Y-71967871D01*
X139397970Y-71982121D01*
X139377453Y-71994418D01*
X139355829Y-72004646D01*
X139333307Y-72012704D01*
X139310103Y-72018516D01*
X139286442Y-72022026D01*
X139262550Y-72023200D01*
X138775050Y-72023200D01*
X138751158Y-72022026D01*
X138727497Y-72018516D01*
X138704293Y-72012704D01*
X138681771Y-72004646D01*
X138660147Y-71994418D01*
X138639630Y-71982121D01*
X138620417Y-71967871D01*
X138602693Y-71951807D01*
X138586629Y-71934083D01*
X138572379Y-71914870D01*
X138560082Y-71894353D01*
X138549854Y-71872729D01*
X138541796Y-71850207D01*
X138535984Y-71827003D01*
X138532474Y-71803342D01*
X138531300Y-71779450D01*
X138531300Y-70866950D01*
X138532474Y-70843058D01*
X138535984Y-70819397D01*
X138541796Y-70796193D01*
X138549854Y-70773671D01*
X138560082Y-70752047D01*
X138572379Y-70731530D01*
X138586629Y-70712317D01*
X138602693Y-70694593D01*
X138620417Y-70678529D01*
X138639630Y-70664279D01*
X138660147Y-70651982D01*
X138681771Y-70641754D01*
X138704293Y-70633696D01*
X138727497Y-70627884D01*
X138751158Y-70624374D01*
X138775050Y-70623200D01*
X139262550Y-70623200D01*
X139286442Y-70624374D01*
X139286442Y-70624374D01*
G37*
D14*
G04 #@! TD*
G04 #@! TO.P,D4,2*
G04 #@! TO.N,Net-(D1-Pad2)*
X139018800Y-71323200D03*
D13*
G04 #@! TO.N,Net-(C1-Pad1)*
G04 #@! TO.C,C1*
G36*
X122400142Y-104161674D02*
X122423803Y-104165184D01*
X122447007Y-104170996D01*
X122469529Y-104179054D01*
X122491153Y-104189282D01*
X122511670Y-104201579D01*
X122530883Y-104215829D01*
X122548607Y-104231893D01*
X122564671Y-104249617D01*
X122578921Y-104268830D01*
X122591218Y-104289347D01*
X122601446Y-104310971D01*
X122609504Y-104333493D01*
X122615316Y-104356697D01*
X122618826Y-104380358D01*
X122620000Y-104404250D01*
X122620000Y-104891750D01*
X122618826Y-104915642D01*
X122615316Y-104939303D01*
X122609504Y-104962507D01*
X122601446Y-104985029D01*
X122591218Y-105006653D01*
X122578921Y-105027170D01*
X122564671Y-105046383D01*
X122548607Y-105064107D01*
X122530883Y-105080171D01*
X122511670Y-105094421D01*
X122491153Y-105106718D01*
X122469529Y-105116946D01*
X122447007Y-105125004D01*
X122423803Y-105130816D01*
X122400142Y-105134326D01*
X122376250Y-105135500D01*
X121463750Y-105135500D01*
X121439858Y-105134326D01*
X121416197Y-105130816D01*
X121392993Y-105125004D01*
X121370471Y-105116946D01*
X121348847Y-105106718D01*
X121328330Y-105094421D01*
X121309117Y-105080171D01*
X121291393Y-105064107D01*
X121275329Y-105046383D01*
X121261079Y-105027170D01*
X121248782Y-105006653D01*
X121238554Y-104985029D01*
X121230496Y-104962507D01*
X121224684Y-104939303D01*
X121221174Y-104915642D01*
X121220000Y-104891750D01*
X121220000Y-104404250D01*
X121221174Y-104380358D01*
X121224684Y-104356697D01*
X121230496Y-104333493D01*
X121238554Y-104310971D01*
X121248782Y-104289347D01*
X121261079Y-104268830D01*
X121275329Y-104249617D01*
X121291393Y-104231893D01*
X121309117Y-104215829D01*
X121328330Y-104201579D01*
X121348847Y-104189282D01*
X121370471Y-104179054D01*
X121392993Y-104170996D01*
X121416197Y-104165184D01*
X121439858Y-104161674D01*
X121463750Y-104160500D01*
X122376250Y-104160500D01*
X122400142Y-104161674D01*
X122400142Y-104161674D01*
G37*
D14*
G04 #@! TD*
G04 #@! TO.P,C1,1*
G04 #@! TO.N,Net-(C1-Pad1)*
X121920000Y-104648000D03*
D13*
G04 #@! TO.N,Net-(C1-Pad2)*
G04 #@! TO.C,C1*
G36*
X122400142Y-102286674D02*
X122423803Y-102290184D01*
X122447007Y-102295996D01*
X122469529Y-102304054D01*
X122491153Y-102314282D01*
X122511670Y-102326579D01*
X122530883Y-102340829D01*
X122548607Y-102356893D01*
X122564671Y-102374617D01*
X122578921Y-102393830D01*
X122591218Y-102414347D01*
X122601446Y-102435971D01*
X122609504Y-102458493D01*
X122615316Y-102481697D01*
X122618826Y-102505358D01*
X122620000Y-102529250D01*
X122620000Y-103016750D01*
X122618826Y-103040642D01*
X122615316Y-103064303D01*
X122609504Y-103087507D01*
X122601446Y-103110029D01*
X122591218Y-103131653D01*
X122578921Y-103152170D01*
X122564671Y-103171383D01*
X122548607Y-103189107D01*
X122530883Y-103205171D01*
X122511670Y-103219421D01*
X122491153Y-103231718D01*
X122469529Y-103241946D01*
X122447007Y-103250004D01*
X122423803Y-103255816D01*
X122400142Y-103259326D01*
X122376250Y-103260500D01*
X121463750Y-103260500D01*
X121439858Y-103259326D01*
X121416197Y-103255816D01*
X121392993Y-103250004D01*
X121370471Y-103241946D01*
X121348847Y-103231718D01*
X121328330Y-103219421D01*
X121309117Y-103205171D01*
X121291393Y-103189107D01*
X121275329Y-103171383D01*
X121261079Y-103152170D01*
X121248782Y-103131653D01*
X121238554Y-103110029D01*
X121230496Y-103087507D01*
X121224684Y-103064303D01*
X121221174Y-103040642D01*
X121220000Y-103016750D01*
X121220000Y-102529250D01*
X121221174Y-102505358D01*
X121224684Y-102481697D01*
X121230496Y-102458493D01*
X121238554Y-102435971D01*
X121248782Y-102414347D01*
X121261079Y-102393830D01*
X121275329Y-102374617D01*
X121291393Y-102356893D01*
X121309117Y-102340829D01*
X121328330Y-102326579D01*
X121348847Y-102314282D01*
X121370471Y-102304054D01*
X121392993Y-102295996D01*
X121416197Y-102290184D01*
X121439858Y-102286674D01*
X121463750Y-102285500D01*
X122376250Y-102285500D01*
X122400142Y-102286674D01*
X122400142Y-102286674D01*
G37*
D14*
G04 #@! TD*
G04 #@! TO.P,C1,2*
G04 #@! TO.N,Net-(C1-Pad2)*
X121920000Y-102773000D03*
D13*
G04 #@! TO.N,Net-(Q2-Pad1)*
G04 #@! TO.C,R1*
G36*
X117066142Y-104161674D02*
X117089803Y-104165184D01*
X117113007Y-104170996D01*
X117135529Y-104179054D01*
X117157153Y-104189282D01*
X117177670Y-104201579D01*
X117196883Y-104215829D01*
X117214607Y-104231893D01*
X117230671Y-104249617D01*
X117244921Y-104268830D01*
X117257218Y-104289347D01*
X117267446Y-104310971D01*
X117275504Y-104333493D01*
X117281316Y-104356697D01*
X117284826Y-104380358D01*
X117286000Y-104404250D01*
X117286000Y-104891750D01*
X117284826Y-104915642D01*
X117281316Y-104939303D01*
X117275504Y-104962507D01*
X117267446Y-104985029D01*
X117257218Y-105006653D01*
X117244921Y-105027170D01*
X117230671Y-105046383D01*
X117214607Y-105064107D01*
X117196883Y-105080171D01*
X117177670Y-105094421D01*
X117157153Y-105106718D01*
X117135529Y-105116946D01*
X117113007Y-105125004D01*
X117089803Y-105130816D01*
X117066142Y-105134326D01*
X117042250Y-105135500D01*
X116129750Y-105135500D01*
X116105858Y-105134326D01*
X116082197Y-105130816D01*
X116058993Y-105125004D01*
X116036471Y-105116946D01*
X116014847Y-105106718D01*
X115994330Y-105094421D01*
X115975117Y-105080171D01*
X115957393Y-105064107D01*
X115941329Y-105046383D01*
X115927079Y-105027170D01*
X115914782Y-105006653D01*
X115904554Y-104985029D01*
X115896496Y-104962507D01*
X115890684Y-104939303D01*
X115887174Y-104915642D01*
X115886000Y-104891750D01*
X115886000Y-104404250D01*
X115887174Y-104380358D01*
X115890684Y-104356697D01*
X115896496Y-104333493D01*
X115904554Y-104310971D01*
X115914782Y-104289347D01*
X115927079Y-104268830D01*
X115941329Y-104249617D01*
X115957393Y-104231893D01*
X115975117Y-104215829D01*
X115994330Y-104201579D01*
X116014847Y-104189282D01*
X116036471Y-104179054D01*
X116058993Y-104170996D01*
X116082197Y-104165184D01*
X116105858Y-104161674D01*
X116129750Y-104160500D01*
X117042250Y-104160500D01*
X117066142Y-104161674D01*
X117066142Y-104161674D01*
G37*
D14*
G04 #@! TD*
G04 #@! TO.P,R1,1*
G04 #@! TO.N,Net-(Q2-Pad1)*
X116586000Y-104648000D03*
D13*
G04 #@! TO.N,Net-(Q1-Pad3)*
G04 #@! TO.C,R1*
G36*
X117066142Y-102286674D02*
X117089803Y-102290184D01*
X117113007Y-102295996D01*
X117135529Y-102304054D01*
X117157153Y-102314282D01*
X117177670Y-102326579D01*
X117196883Y-102340829D01*
X117214607Y-102356893D01*
X117230671Y-102374617D01*
X117244921Y-102393830D01*
X117257218Y-102414347D01*
X117267446Y-102435971D01*
X117275504Y-102458493D01*
X117281316Y-102481697D01*
X117284826Y-102505358D01*
X117286000Y-102529250D01*
X117286000Y-103016750D01*
X117284826Y-103040642D01*
X117281316Y-103064303D01*
X117275504Y-103087507D01*
X117267446Y-103110029D01*
X117257218Y-103131653D01*
X117244921Y-103152170D01*
X117230671Y-103171383D01*
X117214607Y-103189107D01*
X117196883Y-103205171D01*
X117177670Y-103219421D01*
X117157153Y-103231718D01*
X117135529Y-103241946D01*
X117113007Y-103250004D01*
X117089803Y-103255816D01*
X117066142Y-103259326D01*
X117042250Y-103260500D01*
X116129750Y-103260500D01*
X116105858Y-103259326D01*
X116082197Y-103255816D01*
X116058993Y-103250004D01*
X116036471Y-103241946D01*
X116014847Y-103231718D01*
X115994330Y-103219421D01*
X115975117Y-103205171D01*
X115957393Y-103189107D01*
X115941329Y-103171383D01*
X115927079Y-103152170D01*
X115914782Y-103131653D01*
X115904554Y-103110029D01*
X115896496Y-103087507D01*
X115890684Y-103064303D01*
X115887174Y-103040642D01*
X115886000Y-103016750D01*
X115886000Y-102529250D01*
X115887174Y-102505358D01*
X115890684Y-102481697D01*
X115896496Y-102458493D01*
X115904554Y-102435971D01*
X115914782Y-102414347D01*
X115927079Y-102393830D01*
X115941329Y-102374617D01*
X115957393Y-102356893D01*
X115975117Y-102340829D01*
X115994330Y-102326579D01*
X116014847Y-102314282D01*
X116036471Y-102304054D01*
X116058993Y-102295996D01*
X116082197Y-102290184D01*
X116105858Y-102286674D01*
X116129750Y-102285500D01*
X117042250Y-102285500D01*
X117066142Y-102286674D01*
X117066142Y-102286674D01*
G37*
D14*
G04 #@! TD*
G04 #@! TO.P,R1,2*
G04 #@! TO.N,Net-(Q1-Pad3)*
X116586000Y-102773000D03*
D13*
G04 #@! TO.N,VDD*
G04 #@! TO.C,R2*
G36*
X84554142Y-102462174D02*
X84577803Y-102465684D01*
X84601007Y-102471496D01*
X84623529Y-102479554D01*
X84645153Y-102489782D01*
X84665670Y-102502079D01*
X84684883Y-102516329D01*
X84702607Y-102532393D01*
X84718671Y-102550117D01*
X84732921Y-102569330D01*
X84745218Y-102589847D01*
X84755446Y-102611471D01*
X84763504Y-102633993D01*
X84769316Y-102657197D01*
X84772826Y-102680858D01*
X84774000Y-102704750D01*
X84774000Y-103192250D01*
X84772826Y-103216142D01*
X84769316Y-103239803D01*
X84763504Y-103263007D01*
X84755446Y-103285529D01*
X84745218Y-103307153D01*
X84732921Y-103327670D01*
X84718671Y-103346883D01*
X84702607Y-103364607D01*
X84684883Y-103380671D01*
X84665670Y-103394921D01*
X84645153Y-103407218D01*
X84623529Y-103417446D01*
X84601007Y-103425504D01*
X84577803Y-103431316D01*
X84554142Y-103434826D01*
X84530250Y-103436000D01*
X83617750Y-103436000D01*
X83593858Y-103434826D01*
X83570197Y-103431316D01*
X83546993Y-103425504D01*
X83524471Y-103417446D01*
X83502847Y-103407218D01*
X83482330Y-103394921D01*
X83463117Y-103380671D01*
X83445393Y-103364607D01*
X83429329Y-103346883D01*
X83415079Y-103327670D01*
X83402782Y-103307153D01*
X83392554Y-103285529D01*
X83384496Y-103263007D01*
X83378684Y-103239803D01*
X83375174Y-103216142D01*
X83374000Y-103192250D01*
X83374000Y-102704750D01*
X83375174Y-102680858D01*
X83378684Y-102657197D01*
X83384496Y-102633993D01*
X83392554Y-102611471D01*
X83402782Y-102589847D01*
X83415079Y-102569330D01*
X83429329Y-102550117D01*
X83445393Y-102532393D01*
X83463117Y-102516329D01*
X83482330Y-102502079D01*
X83502847Y-102489782D01*
X83524471Y-102479554D01*
X83546993Y-102471496D01*
X83570197Y-102465684D01*
X83593858Y-102462174D01*
X83617750Y-102461000D01*
X84530250Y-102461000D01*
X84554142Y-102462174D01*
X84554142Y-102462174D01*
G37*
D14*
G04 #@! TD*
G04 #@! TO.P,R2,1*
G04 #@! TO.N,VDD*
X84074000Y-102948500D03*
D13*
G04 #@! TO.N,Net-(C1-Pad1)*
G04 #@! TO.C,R2*
G36*
X84554142Y-104337174D02*
X84577803Y-104340684D01*
X84601007Y-104346496D01*
X84623529Y-104354554D01*
X84645153Y-104364782D01*
X84665670Y-104377079D01*
X84684883Y-104391329D01*
X84702607Y-104407393D01*
X84718671Y-104425117D01*
X84732921Y-104444330D01*
X84745218Y-104464847D01*
X84755446Y-104486471D01*
X84763504Y-104508993D01*
X84769316Y-104532197D01*
X84772826Y-104555858D01*
X84774000Y-104579750D01*
X84774000Y-105067250D01*
X84772826Y-105091142D01*
X84769316Y-105114803D01*
X84763504Y-105138007D01*
X84755446Y-105160529D01*
X84745218Y-105182153D01*
X84732921Y-105202670D01*
X84718671Y-105221883D01*
X84702607Y-105239607D01*
X84684883Y-105255671D01*
X84665670Y-105269921D01*
X84645153Y-105282218D01*
X84623529Y-105292446D01*
X84601007Y-105300504D01*
X84577803Y-105306316D01*
X84554142Y-105309826D01*
X84530250Y-105311000D01*
X83617750Y-105311000D01*
X83593858Y-105309826D01*
X83570197Y-105306316D01*
X83546993Y-105300504D01*
X83524471Y-105292446D01*
X83502847Y-105282218D01*
X83482330Y-105269921D01*
X83463117Y-105255671D01*
X83445393Y-105239607D01*
X83429329Y-105221883D01*
X83415079Y-105202670D01*
X83402782Y-105182153D01*
X83392554Y-105160529D01*
X83384496Y-105138007D01*
X83378684Y-105114803D01*
X83375174Y-105091142D01*
X83374000Y-105067250D01*
X83374000Y-104579750D01*
X83375174Y-104555858D01*
X83378684Y-104532197D01*
X83384496Y-104508993D01*
X83392554Y-104486471D01*
X83402782Y-104464847D01*
X83415079Y-104444330D01*
X83429329Y-104425117D01*
X83445393Y-104407393D01*
X83463117Y-104391329D01*
X83482330Y-104377079D01*
X83502847Y-104364782D01*
X83524471Y-104354554D01*
X83546993Y-104346496D01*
X83570197Y-104340684D01*
X83593858Y-104337174D01*
X83617750Y-104336000D01*
X84530250Y-104336000D01*
X84554142Y-104337174D01*
X84554142Y-104337174D01*
G37*
D14*
G04 #@! TD*
G04 #@! TO.P,R2,2*
G04 #@! TO.N,Net-(C1-Pad1)*
X84074000Y-104823500D03*
D13*
G04 #@! TO.N,Net-(C1-Pad2)*
G04 #@! TO.C,R3*
G36*
X121130142Y-95622674D02*
X121153803Y-95626184D01*
X121177007Y-95631996D01*
X121199529Y-95640054D01*
X121221153Y-95650282D01*
X121241670Y-95662579D01*
X121260883Y-95676829D01*
X121278607Y-95692893D01*
X121294671Y-95710617D01*
X121308921Y-95729830D01*
X121321218Y-95750347D01*
X121331446Y-95771971D01*
X121339504Y-95794493D01*
X121345316Y-95817697D01*
X121348826Y-95841358D01*
X121350000Y-95865250D01*
X121350000Y-96352750D01*
X121348826Y-96376642D01*
X121345316Y-96400303D01*
X121339504Y-96423507D01*
X121331446Y-96446029D01*
X121321218Y-96467653D01*
X121308921Y-96488170D01*
X121294671Y-96507383D01*
X121278607Y-96525107D01*
X121260883Y-96541171D01*
X121241670Y-96555421D01*
X121221153Y-96567718D01*
X121199529Y-96577946D01*
X121177007Y-96586004D01*
X121153803Y-96591816D01*
X121130142Y-96595326D01*
X121106250Y-96596500D01*
X120193750Y-96596500D01*
X120169858Y-96595326D01*
X120146197Y-96591816D01*
X120122993Y-96586004D01*
X120100471Y-96577946D01*
X120078847Y-96567718D01*
X120058330Y-96555421D01*
X120039117Y-96541171D01*
X120021393Y-96525107D01*
X120005329Y-96507383D01*
X119991079Y-96488170D01*
X119978782Y-96467653D01*
X119968554Y-96446029D01*
X119960496Y-96423507D01*
X119954684Y-96400303D01*
X119951174Y-96376642D01*
X119950000Y-96352750D01*
X119950000Y-95865250D01*
X119951174Y-95841358D01*
X119954684Y-95817697D01*
X119960496Y-95794493D01*
X119968554Y-95771971D01*
X119978782Y-95750347D01*
X119991079Y-95729830D01*
X120005329Y-95710617D01*
X120021393Y-95692893D01*
X120039117Y-95676829D01*
X120058330Y-95662579D01*
X120078847Y-95650282D01*
X120100471Y-95640054D01*
X120122993Y-95631996D01*
X120146197Y-95626184D01*
X120169858Y-95622674D01*
X120193750Y-95621500D01*
X121106250Y-95621500D01*
X121130142Y-95622674D01*
X121130142Y-95622674D01*
G37*
D14*
G04 #@! TD*
G04 #@! TO.P,R3,1*
G04 #@! TO.N,Net-(C1-Pad2)*
X120650000Y-96109000D03*
D13*
G04 #@! TO.N,Net-(Q1-Pad1)*
G04 #@! TO.C,R3*
G36*
X121130142Y-93747674D02*
X121153803Y-93751184D01*
X121177007Y-93756996D01*
X121199529Y-93765054D01*
X121221153Y-93775282D01*
X121241670Y-93787579D01*
X121260883Y-93801829D01*
X121278607Y-93817893D01*
X121294671Y-93835617D01*
X121308921Y-93854830D01*
X121321218Y-93875347D01*
X121331446Y-93896971D01*
X121339504Y-93919493D01*
X121345316Y-93942697D01*
X121348826Y-93966358D01*
X121350000Y-93990250D01*
X121350000Y-94477750D01*
X121348826Y-94501642D01*
X121345316Y-94525303D01*
X121339504Y-94548507D01*
X121331446Y-94571029D01*
X121321218Y-94592653D01*
X121308921Y-94613170D01*
X121294671Y-94632383D01*
X121278607Y-94650107D01*
X121260883Y-94666171D01*
X121241670Y-94680421D01*
X121221153Y-94692718D01*
X121199529Y-94702946D01*
X121177007Y-94711004D01*
X121153803Y-94716816D01*
X121130142Y-94720326D01*
X121106250Y-94721500D01*
X120193750Y-94721500D01*
X120169858Y-94720326D01*
X120146197Y-94716816D01*
X120122993Y-94711004D01*
X120100471Y-94702946D01*
X120078847Y-94692718D01*
X120058330Y-94680421D01*
X120039117Y-94666171D01*
X120021393Y-94650107D01*
X120005329Y-94632383D01*
X119991079Y-94613170D01*
X119978782Y-94592653D01*
X119968554Y-94571029D01*
X119960496Y-94548507D01*
X119954684Y-94525303D01*
X119951174Y-94501642D01*
X119950000Y-94477750D01*
X119950000Y-93990250D01*
X119951174Y-93966358D01*
X119954684Y-93942697D01*
X119960496Y-93919493D01*
X119968554Y-93896971D01*
X119978782Y-93875347D01*
X119991079Y-93854830D01*
X120005329Y-93835617D01*
X120021393Y-93817893D01*
X120039117Y-93801829D01*
X120058330Y-93787579D01*
X120078847Y-93775282D01*
X120100471Y-93765054D01*
X120122993Y-93756996D01*
X120146197Y-93751184D01*
X120169858Y-93747674D01*
X120193750Y-93746500D01*
X121106250Y-93746500D01*
X121130142Y-93747674D01*
X121130142Y-93747674D01*
G37*
D14*
G04 #@! TD*
G04 #@! TO.P,R3,2*
G04 #@! TO.N,Net-(Q1-Pad1)*
X120650000Y-94234000D03*
D13*
G04 #@! TO.N,GND*
G04 #@! TO.C,R4*
G36*
X119860142Y-105177674D02*
X119883803Y-105181184D01*
X119907007Y-105186996D01*
X119929529Y-105195054D01*
X119951153Y-105205282D01*
X119971670Y-105217579D01*
X119990883Y-105231829D01*
X120008607Y-105247893D01*
X120024671Y-105265617D01*
X120038921Y-105284830D01*
X120051218Y-105305347D01*
X120061446Y-105326971D01*
X120069504Y-105349493D01*
X120075316Y-105372697D01*
X120078826Y-105396358D01*
X120080000Y-105420250D01*
X120080000Y-105907750D01*
X120078826Y-105931642D01*
X120075316Y-105955303D01*
X120069504Y-105978507D01*
X120061446Y-106001029D01*
X120051218Y-106022653D01*
X120038921Y-106043170D01*
X120024671Y-106062383D01*
X120008607Y-106080107D01*
X119990883Y-106096171D01*
X119971670Y-106110421D01*
X119951153Y-106122718D01*
X119929529Y-106132946D01*
X119907007Y-106141004D01*
X119883803Y-106146816D01*
X119860142Y-106150326D01*
X119836250Y-106151500D01*
X118923750Y-106151500D01*
X118899858Y-106150326D01*
X118876197Y-106146816D01*
X118852993Y-106141004D01*
X118830471Y-106132946D01*
X118808847Y-106122718D01*
X118788330Y-106110421D01*
X118769117Y-106096171D01*
X118751393Y-106080107D01*
X118735329Y-106062383D01*
X118721079Y-106043170D01*
X118708782Y-106022653D01*
X118698554Y-106001029D01*
X118690496Y-105978507D01*
X118684684Y-105955303D01*
X118681174Y-105931642D01*
X118680000Y-105907750D01*
X118680000Y-105420250D01*
X118681174Y-105396358D01*
X118684684Y-105372697D01*
X118690496Y-105349493D01*
X118698554Y-105326971D01*
X118708782Y-105305347D01*
X118721079Y-105284830D01*
X118735329Y-105265617D01*
X118751393Y-105247893D01*
X118769117Y-105231829D01*
X118788330Y-105217579D01*
X118808847Y-105205282D01*
X118830471Y-105195054D01*
X118852993Y-105186996D01*
X118876197Y-105181184D01*
X118899858Y-105177674D01*
X118923750Y-105176500D01*
X119836250Y-105176500D01*
X119860142Y-105177674D01*
X119860142Y-105177674D01*
G37*
D14*
G04 #@! TD*
G04 #@! TO.P,R4,2*
G04 #@! TO.N,GND*
X119380000Y-105664000D03*
D13*
G04 #@! TO.N,Net-(Q1-Pad1)*
G04 #@! TO.C,R4*
G36*
X119860142Y-103302674D02*
X119883803Y-103306184D01*
X119907007Y-103311996D01*
X119929529Y-103320054D01*
X119951153Y-103330282D01*
X119971670Y-103342579D01*
X119990883Y-103356829D01*
X120008607Y-103372893D01*
X120024671Y-103390617D01*
X120038921Y-103409830D01*
X120051218Y-103430347D01*
X120061446Y-103451971D01*
X120069504Y-103474493D01*
X120075316Y-103497697D01*
X120078826Y-103521358D01*
X120080000Y-103545250D01*
X120080000Y-104032750D01*
X120078826Y-104056642D01*
X120075316Y-104080303D01*
X120069504Y-104103507D01*
X120061446Y-104126029D01*
X120051218Y-104147653D01*
X120038921Y-104168170D01*
X120024671Y-104187383D01*
X120008607Y-104205107D01*
X119990883Y-104221171D01*
X119971670Y-104235421D01*
X119951153Y-104247718D01*
X119929529Y-104257946D01*
X119907007Y-104266004D01*
X119883803Y-104271816D01*
X119860142Y-104275326D01*
X119836250Y-104276500D01*
X118923750Y-104276500D01*
X118899858Y-104275326D01*
X118876197Y-104271816D01*
X118852993Y-104266004D01*
X118830471Y-104257946D01*
X118808847Y-104247718D01*
X118788330Y-104235421D01*
X118769117Y-104221171D01*
X118751393Y-104205107D01*
X118735329Y-104187383D01*
X118721079Y-104168170D01*
X118708782Y-104147653D01*
X118698554Y-104126029D01*
X118690496Y-104103507D01*
X118684684Y-104080303D01*
X118681174Y-104056642D01*
X118680000Y-104032750D01*
X118680000Y-103545250D01*
X118681174Y-103521358D01*
X118684684Y-103497697D01*
X118690496Y-103474493D01*
X118698554Y-103451971D01*
X118708782Y-103430347D01*
X118721079Y-103409830D01*
X118735329Y-103390617D01*
X118751393Y-103372893D01*
X118769117Y-103356829D01*
X118788330Y-103342579D01*
X118808847Y-103330282D01*
X118830471Y-103320054D01*
X118852993Y-103311996D01*
X118876197Y-103306184D01*
X118899858Y-103302674D01*
X118923750Y-103301500D01*
X119836250Y-103301500D01*
X119860142Y-103302674D01*
X119860142Y-103302674D01*
G37*
D14*
G04 #@! TD*
G04 #@! TO.P,R4,1*
G04 #@! TO.N,Net-(Q1-Pad1)*
X119380000Y-103789000D03*
D13*
G04 #@! TO.N,Net-(D1-Pad2)*
G04 #@! TO.C,R5*
G36*
X116304142Y-84603674D02*
X116327803Y-84607184D01*
X116351007Y-84612996D01*
X116373529Y-84621054D01*
X116395153Y-84631282D01*
X116415670Y-84643579D01*
X116434883Y-84657829D01*
X116452607Y-84673893D01*
X116468671Y-84691617D01*
X116482921Y-84710830D01*
X116495218Y-84731347D01*
X116505446Y-84752971D01*
X116513504Y-84775493D01*
X116519316Y-84798697D01*
X116522826Y-84822358D01*
X116524000Y-84846250D01*
X116524000Y-85333750D01*
X116522826Y-85357642D01*
X116519316Y-85381303D01*
X116513504Y-85404507D01*
X116505446Y-85427029D01*
X116495218Y-85448653D01*
X116482921Y-85469170D01*
X116468671Y-85488383D01*
X116452607Y-85506107D01*
X116434883Y-85522171D01*
X116415670Y-85536421D01*
X116395153Y-85548718D01*
X116373529Y-85558946D01*
X116351007Y-85567004D01*
X116327803Y-85572816D01*
X116304142Y-85576326D01*
X116280250Y-85577500D01*
X115367750Y-85577500D01*
X115343858Y-85576326D01*
X115320197Y-85572816D01*
X115296993Y-85567004D01*
X115274471Y-85558946D01*
X115252847Y-85548718D01*
X115232330Y-85536421D01*
X115213117Y-85522171D01*
X115195393Y-85506107D01*
X115179329Y-85488383D01*
X115165079Y-85469170D01*
X115152782Y-85448653D01*
X115142554Y-85427029D01*
X115134496Y-85404507D01*
X115128684Y-85381303D01*
X115125174Y-85357642D01*
X115124000Y-85333750D01*
X115124000Y-84846250D01*
X115125174Y-84822358D01*
X115128684Y-84798697D01*
X115134496Y-84775493D01*
X115142554Y-84752971D01*
X115152782Y-84731347D01*
X115165079Y-84710830D01*
X115179329Y-84691617D01*
X115195393Y-84673893D01*
X115213117Y-84657829D01*
X115232330Y-84643579D01*
X115252847Y-84631282D01*
X115274471Y-84621054D01*
X115296993Y-84612996D01*
X115320197Y-84607184D01*
X115343858Y-84603674D01*
X115367750Y-84602500D01*
X116280250Y-84602500D01*
X116304142Y-84603674D01*
X116304142Y-84603674D01*
G37*
D14*
G04 #@! TD*
G04 #@! TO.P,R5,2*
G04 #@! TO.N,Net-(D1-Pad2)*
X115824000Y-85090000D03*
D13*
G04 #@! TO.N,VDD*
G04 #@! TO.C,R5*
G36*
X116304142Y-86478674D02*
X116327803Y-86482184D01*
X116351007Y-86487996D01*
X116373529Y-86496054D01*
X116395153Y-86506282D01*
X116415670Y-86518579D01*
X116434883Y-86532829D01*
X116452607Y-86548893D01*
X116468671Y-86566617D01*
X116482921Y-86585830D01*
X116495218Y-86606347D01*
X116505446Y-86627971D01*
X116513504Y-86650493D01*
X116519316Y-86673697D01*
X116522826Y-86697358D01*
X116524000Y-86721250D01*
X116524000Y-87208750D01*
X116522826Y-87232642D01*
X116519316Y-87256303D01*
X116513504Y-87279507D01*
X116505446Y-87302029D01*
X116495218Y-87323653D01*
X116482921Y-87344170D01*
X116468671Y-87363383D01*
X116452607Y-87381107D01*
X116434883Y-87397171D01*
X116415670Y-87411421D01*
X116395153Y-87423718D01*
X116373529Y-87433946D01*
X116351007Y-87442004D01*
X116327803Y-87447816D01*
X116304142Y-87451326D01*
X116280250Y-87452500D01*
X115367750Y-87452500D01*
X115343858Y-87451326D01*
X115320197Y-87447816D01*
X115296993Y-87442004D01*
X115274471Y-87433946D01*
X115252847Y-87423718D01*
X115232330Y-87411421D01*
X115213117Y-87397171D01*
X115195393Y-87381107D01*
X115179329Y-87363383D01*
X115165079Y-87344170D01*
X115152782Y-87323653D01*
X115142554Y-87302029D01*
X115134496Y-87279507D01*
X115128684Y-87256303D01*
X115125174Y-87232642D01*
X115124000Y-87208750D01*
X115124000Y-86721250D01*
X115125174Y-86697358D01*
X115128684Y-86673697D01*
X115134496Y-86650493D01*
X115142554Y-86627971D01*
X115152782Y-86606347D01*
X115165079Y-86585830D01*
X115179329Y-86566617D01*
X115195393Y-86548893D01*
X115213117Y-86532829D01*
X115232330Y-86518579D01*
X115252847Y-86506282D01*
X115274471Y-86496054D01*
X115296993Y-86487996D01*
X115320197Y-86482184D01*
X115343858Y-86478674D01*
X115367750Y-86477500D01*
X116280250Y-86477500D01*
X116304142Y-86478674D01*
X116304142Y-86478674D01*
G37*
D14*
G04 #@! TD*
G04 #@! TO.P,R5,1*
G04 #@! TO.N,VDD*
X115824000Y-86965000D03*
D17*
G04 #@! TO.N,VDD*
X89154000Y-86360000D02*
X102265000Y-86360000D01*
X83957800Y-91556200D02*
X89154000Y-86360000D01*
X83957800Y-97637600D02*
X83957800Y-91556200D01*
X84074000Y-97753800D02*
X83957800Y-97637600D01*
X84074000Y-102948500D02*
X84074000Y-97753800D01*
X115824000Y-94316000D02*
X113858000Y-96282000D01*
X115824000Y-86965000D02*
X115824000Y-94316000D01*
X106857800Y-90952800D02*
X106857800Y-97637600D01*
X102265000Y-86360000D02*
X106857800Y-90952800D01*
X113858000Y-96332000D02*
X113858000Y-96282000D01*
X112552400Y-97637600D02*
X113858000Y-96332000D01*
X106857800Y-97637600D02*
X112552400Y-97637600D01*
G04 #@! TO.N,GND*
X104968199Y-107197999D02*
X95407800Y-97637600D01*
X113750001Y-107197999D02*
X104968199Y-107197999D01*
X119364000Y-105648000D02*
X119380000Y-105664000D01*
X113760000Y-107188000D02*
X114940000Y-107188000D01*
X113750001Y-107197999D02*
X113760000Y-107188000D01*
X114940000Y-107238000D02*
X114940000Y-107188000D01*
X119126000Y-108204000D02*
X115906000Y-108204000D01*
X119380000Y-107950000D02*
X119126000Y-108204000D01*
X115906000Y-108204000D02*
X114940000Y-107238000D01*
X119380000Y-105664000D02*
X119380000Y-107950000D01*
G04 #@! TO.N,Net-(C1-Pad2)*
X121920000Y-97379000D02*
X121920000Y-102773000D01*
X120650000Y-96109000D02*
X121920000Y-97379000D01*
G04 #@! TO.N,Net-(D1-Pad2)*
X115824000Y-85090000D02*
X133096000Y-85090000D01*
X139016500Y-79169500D02*
X139016500Y-77137500D01*
X133096000Y-85090000D02*
X139016500Y-79169500D01*
X102791500Y-85090000D02*
X94663500Y-76962000D01*
X115824000Y-85090000D02*
X102791500Y-85090000D01*
X94663500Y-71325500D02*
X94665800Y-71323200D01*
X94663500Y-76962000D02*
X94663500Y-71325500D01*
X139016500Y-71325500D02*
X139018800Y-71323200D01*
X139016500Y-77137500D02*
X139016500Y-71325500D01*
G04 #@! TO.N,Net-(Q1-Pad1)*
X115758000Y-96282000D02*
X115758000Y-96332000D01*
X116408000Y-96282000D02*
X115758000Y-96282000D01*
X119380000Y-99254000D02*
X116408000Y-96282000D01*
X119380000Y-103789000D02*
X119380000Y-99254000D01*
X115758000Y-96232000D02*
X115758000Y-96282000D01*
X117756000Y-94234000D02*
X115758000Y-96232000D01*
X120650000Y-94234000D02*
X117756000Y-94234000D01*
G04 #@! TO.N,Net-(Q1-Pad3)*
X114808000Y-100995000D02*
X116586000Y-102773000D01*
X114808000Y-98282000D02*
X114808000Y-100995000D01*
G04 #@! TO.N,Net-(Q2-Pad1)*
X116586000Y-106934000D02*
X116840000Y-107188000D01*
X116586000Y-104648000D02*
X116586000Y-106934000D01*
G04 #@! TO.N,Net-(C1-Pad1)*
X127508000Y-100696000D02*
X127508000Y-101346000D01*
X121920000Y-104648000D02*
X125706000Y-104648000D01*
X127508000Y-102846000D02*
X127508000Y-101346000D01*
X125706000Y-104648000D02*
X127508000Y-102846000D01*
X121920000Y-106680000D02*
X121920000Y-104648000D01*
X115890000Y-109188000D02*
X119412000Y-109188000D01*
X119412000Y-109188000D02*
X121920000Y-106680000D01*
X115240000Y-109188000D02*
X115890000Y-109188000D01*
X87851000Y-109188000D02*
X115240000Y-109188000D01*
X84074000Y-105411000D02*
X87851000Y-109188000D01*
X84074000Y-104823500D02*
X84074000Y-105411000D01*
G04 #@! TO.N,Net-(D1-Pad1)*
X130858000Y-101346000D02*
X130008000Y-101346000D01*
X140891500Y-91312500D02*
X130858000Y-101346000D01*
X140891500Y-77137500D02*
X140891500Y-91312500D01*
X92788500Y-71325500D02*
X92790800Y-71323200D01*
X92788500Y-76962000D02*
X92788500Y-71325500D01*
X140891500Y-71325500D02*
X140893800Y-71323200D01*
X140891500Y-77137500D02*
X140891500Y-71325500D01*
X140893800Y-70523200D02*
X139128400Y-68757800D01*
X140893800Y-71323200D02*
X140893800Y-70523200D01*
X95356200Y-68757800D02*
X92790800Y-71323200D01*
X139128400Y-68757800D02*
X95356200Y-68757800D01*
G04 #@! TD*
M02*
